<svg xmlns="http://www.w3.org/2000/svg" xmlns:xlink="http://www.w3.org/1999/xlink" width="500" zoomAndPan="magnify" viewBox="0 0 375 374.999991" height="500" preserveAspectRatio="xMidYMid meet" version="1.0"><defs><g/><clipPath id="f2c971d296"><path d="M 92.113281 90.816406 L 279.613281 90.816406 L 279.613281 278 L 92.113281 278 Z M 92.113281 90.816406 " clip-rule="nonzero"/></clipPath></defs><g clip-path="url(#f2c971d296)"><path fill="#122620" d="M 185.699219 277.988281 C 133.996094 277.988281 92.113281 235.816406 92.113281 184.402344 C 92.113281 132.988281 133.996094 90.816406 185.699219 90.816406 C 237.402344 90.816406 279.285156 132.699219 279.285156 184.402344 C 279.285156 236.105469 237.113281 277.988281 185.699219 277.988281 Z M 185.699219 96.59375 C 137.175781 96.59375 97.890625 135.875 97.890625 184.402344 C 97.890625 232.929688 137.175781 272.210938 185.699219 272.210938 C 234.226562 272.210938 273.507812 232.929688 273.507812 184.402344 C 273.507812 135.875 233.9375 96.59375 185.699219 96.59375 Z M 185.699219 96.59375 " fill-opacity="1" fill-rule="nonzero"/></g><path stroke-linecap="butt" transform="matrix(1.465975, 0, 0, 1.465975, 22.56526, 100.847161)" fill="none" stroke-linejoin="miter" d="M 22.617978 104.743431 C 23.881003 104.743431 25.282587 104.317093 26.825395 103.467083 C 28.381526 102.627732 29.85239 101.636497 31.235322 100.49338 C 32.631577 99.350263 33.681432 98.292414 34.387554 97.322496 C 34.824549 96.776252 35.205588 96.299287 35.522677 95.886272 C 35.855753 95.473258 36.215475 94.993629 36.601843 94.450048 C 36.86564 93.903804 37.158746 93.397528 37.478499 92.933886 C 37.811576 92.480903 38.091359 91.982621 38.315187 91.436376 C 39.181184 89.747015 39.746081 88.270822 40.012542 87.007797 C 40.292326 85.758096 40.417563 84.521717 40.390916 83.298662 C 40.36427 82.075607 40.271009 80.698004 40.111133 79.168519 C 39.727429 79.275103 39.420999 79.421657 39.194507 79.60818 C 38.981339 79.808025 38.688232 80.045175 38.315187 80.324959 C 38.091359 80.538128 37.851545 80.72465 37.598407 80.884527 C 37.358592 81.057726 37.105454 81.249578 36.838993 81.462747 L 32.431731 85.393044 C 30.955538 86.74933 29.751135 87.847149 28.821187 88.683836 C 27.904561 89.536511 27.019911 90.418496 26.167237 91.337786 C 25.33055 92.267734 24.286023 93.578721 23.036322 95.268083 C 22.649954 95.758371 22.170324 96.437846 21.600098 97.301179 C 21.027207 98.1805 20.520931 99.110449 20.083936 100.093689 C 19.657598 101.079594 19.44443 101.950921 19.44443 102.70767 C 19.44443 103.693575 19.644275 104.277124 20.043967 104.463647 C 20.456981 104.65017 21.155108 104.743431 22.138349 104.743431 C 22.244933 104.743431 22.338194 104.743431 22.418133 104.743431 C 22.498071 104.743431 22.564686 104.743431 22.617978 104.743431 Z M 0.235267 57.28409 C 0.235267 54.331704 0.738878 51.254081 1.75143 48.048557 C 2.761316 44.82971 4.037664 41.672149 5.580472 38.57321 C 7.136603 35.460947 8.706058 32.68176 10.288835 30.23565 C 10.992292 28.916669 11.903588 27.515085 13.022723 26.025569 C 14.139194 24.522729 15.308957 23.038543 16.532013 21.575673 C 17.755068 20.099479 18.887526 18.817803 19.924059 17.725313 C 21.773297 15.932032 23.646517 14.287969 25.549048 12.798452 C 27.464901 11.295613 29.524643 10.080552 31.733604 9.147939 C 33.939899 8.217991 36.380681 7.751684 39.053283 7.751684 C 41.661935 7.924884 43.796286 8.921447 45.459002 10.744039 C 47.121717 12.566631 48.358096 14.812896 49.168137 17.488163 C 49.994165 20.160765 50.404515 22.913306 50.404515 25.745785 C 50.404515 28.951309 50.079433 32.215454 49.429268 35.540885 C 48.776439 38.866317 48.064989 41.970585 47.292252 44.856356 C 47.028456 46.106058 46.740678 47.21187 46.436913 48.168465 C 46.143806 49.125059 45.530946 49.604689 44.600998 49.604689 C 43.948169 49.604689 43.59644 49.111736 43.543148 48.128496 C 43.489856 47.145255 43.583117 45.959504 43.822932 44.576573 C 44.07607 43.180318 44.34786 41.885318 44.640967 40.688909 C 44.947397 39.489835 45.152572 38.698446 45.259156 38.314743 C 45.645524 35.972552 45.98393 33.459826 46.277036 30.773901 C 46.580802 28.074653 46.620771 25.386063 46.396944 22.71346 C 46.183775 20.040858 45.5043 17.6134 44.361183 15.43375 C 43.535154 13.864296 42.551914 12.766477 41.408797 12.140294 C 40.26568 11.503453 39.042625 11.1837 37.736966 11.1837 C 36.593849 11.1837 35.437409 11.388875 34.267646 11.801889 C 33.097883 12.214903 31.965425 12.718514 30.8756 13.318051 C 30.118851 13.811004 29.260847 14.367907 28.301588 14.99409 C 27.344994 15.617608 26.540282 16.257114 25.887453 16.909943 C 25.503749 17.293647 25.130704 17.6134 24.770982 17.866538 C 24.424583 18.106352 24.067525 18.439428 23.69448 18.863101 L 14.037939 30.392862 C 12.948114 32.082224 12.09011 33.486472 11.466592 34.602943 C 10.840409 35.719414 10.147611 36.985103 9.390862 38.394681 C 8.62079 39.604413 7.829401 41.147221 7.016696 43.020441 C 6.206655 44.896326 5.495204 46.804185 4.882345 48.746685 C 4.282808 50.675861 3.851141 52.31726 3.58468 53.673546 C 3.427468 54.93657 3.31289 56.167619 3.246275 57.364028 C 3.192983 58.560438 3.360853 59.759511 3.744557 60.955921 C 4.290801 62.312206 5.295359 63.276794 6.758229 63.847021 C 8.234422 64.419911 9.870492 64.766311 11.663773 64.886218 C 13.473042 64.992802 15.109112 65.072741 16.571982 65.126033 C 18.541127 65.229952 20.310427 65.296568 21.879882 65.323214 C 23.462659 65.34986 25.042772 65.451115 26.625549 65.624314 C 28.208327 65.784191 29.950981 66.189211 31.853511 66.839376 C 32.943336 67.159129 34.153068 67.69738 35.482708 68.456793 C 36.82567 69.226865 38.043396 70.132832 39.133221 71.169365 C 40.225711 72.205897 40.902521 73.298387 41.168982 74.441504 C 42.365391 73.615475 43.756317 72.565619 45.339094 71.289272 C 46.921872 70.012925 48.509978 68.688614 50.106079 67.319005 C 51.715502 65.96272 53.12508 64.792957 54.334812 63.807052 L 60.617959 58.262001 C 61.164204 57.718421 61.683802 57.252115 62.17409 56.865747 C 62.667043 56.479378 63.186642 56.015736 63.730222 55.469492 C 64.649512 54.499574 65.339645 53.854739 65.805952 53.534986 C 66.272258 53.20191 66.663956 53.036704 66.983709 53.036704 C 67.2102 53.036704 67.402052 53.06335 67.561929 53.116643 C 67.721805 53.169935 67.913657 53.223227 68.140149 53.276519 C 68.140149 53.820099 68.193441 54.145181 68.300025 54.251766 C 68.406609 54.35835 68.446579 54.459605 68.419933 54.552866 C 68.393286 54.632805 68.19877 54.824657 67.841712 55.131086 C 67.495313 55.424193 66.855807 56.02906 65.925859 56.945685 C 64.129913 58.688339 62.48052 60.217824 60.977681 61.534141 C 59.488165 62.837134 57.900058 64.307998 56.210697 65.941403 L 50.982735 70.191453 C 50.545739 70.511206 49.900904 71.009488 49.048229 71.688963 C 48.211542 72.379097 47.313569 73.10387 46.356975 73.863284 C 45.411039 74.620033 44.566358 75.312831 43.822932 75.936349 C 43.090165 76.575855 42.645175 77.028839 42.485299 77.292635 C 42.698467 78.171956 42.88499 79.056606 43.044866 79.946585 C 43.218066 80.849887 43.303333 81.822469 43.303333 82.859002 C 43.303333 85.744773 42.631852 88.630544 41.28889 91.516315 C 39.95925 94.402085 38.243242 97.056035 36.140866 99.4755 C 34.041155 101.897629 31.818871 103.832135 29.479345 105.281682 C 27.139819 106.731229 24.962834 107.456002 22.956384 107.456002 C 22.183647 107.456002 21.320314 107.370735 20.36372 107.197535 C 19.417784 107.037659 18.586426 106.699253 17.869646 106.179655 C 17.163525 105.660056 16.811796 104.828698 16.811796 103.685581 C 16.811796 101.676467 17.150202 99.936477 17.829677 98.460284 C 18.51981 96.984091 19.465746 95.42796 20.662156 93.79189 C 22.458102 91.289823 24.331321 89.115502 26.287144 87.268929 C 28.25629 85.41969 30.329355 83.538477 32.511669 81.622623 L 39.053283 76.23745 C 37.57709 73.455599 35.722523 71.534416 33.489581 70.471237 C 31.253974 69.408058 28.52808 68.688614 25.309233 68.315569 L 18.706333 67.817287 C 16.140315 67.763995 13.752826 67.710703 11.54653 67.657411 C 9.33757 67.604119 7.309803 67.220415 5.460565 66.500971 C 3.717911 65.850806 2.409588 64.739664 1.530267 63.17021 C 0.666934 61.587433 0.235267 59.626281 0.235267 57.28409 Z M 72.051794 67.319005 C 70.961969 67.319005 69.992051 66.967277 69.139377 66.261156 C 68.30269 65.557699 67.663184 64.824932 67.226188 64.068183 C 66.253606 62.205622 65.696703 60.009985 65.550149 57.483936 C 65.416919 54.944564 65.568801 52.642342 66.008462 50.5826 C 66.115046 49.983063 66.2616 49.266283 66.448122 48.426932 C 66.645303 47.576922 66.933081 46.825502 67.306126 46.172673 C 67.68983 45.509185 68.156136 45.176109 68.702381 45.176109 C 69.952082 45.176109 70.562278 45.602447 70.535632 46.452457 C 70.508986 47.291808 70.277165 48.600131 69.837504 50.382754 C 69.413831 52.152054 69.200663 54.419636 69.200663 57.1855 C 69.200663 58.008864 69.307247 58.994769 69.520416 60.137886 C 69.73092 61.281003 70.07199 62.290889 70.535632 63.17021 C 71.001938 64.033543 71.588152 64.46521 72.291609 64.46521 C 73.170929 64.46521 74.167493 64.086835 75.283964 63.330087 C 76.400435 62.55735 77.431638 61.699346 78.377574 60.756075 C 79.334169 59.79948 80.00565 59.074707 80.392018 58.581754 C 80.498603 58.47517 80.797039 58.110119 81.289991 57.483936 C 81.780279 56.860417 82.366493 56.154296 83.043304 55.370901 C 83.722779 54.571519 84.388931 53.873391 85.039095 53.276519 C 85.691924 52.676982 86.208858 52.378546 86.595227 52.378546 C 86.981595 52.378546 87.173447 52.703628 87.173447 53.353793 C 87.173447 53.740161 86.91498 54.326375 86.395381 55.10977 C 85.878447 55.895829 85.257593 56.727187 84.540814 57.603843 C 83.834692 58.469841 83.144559 59.285211 82.465084 60.057947 C 81.788273 60.814696 81.281997 61.360941 80.948921 61.694017 C 80.298757 62.344182 79.520691 63.122247 78.614724 64.028214 C 77.724745 64.918193 76.733511 65.69093 75.643686 66.341094 C 74.553861 66.993923 73.354787 67.319005 72.051794 67.319005 Z M 69.440478 34.882727 C 69.440478 33.966102 69.685622 33.166719 70.178574 32.489909 C 70.668862 31.79711 71.215107 31.450711 71.811979 31.450711 C 72.464808 31.450711 73.011053 31.863726 73.448049 32.68709 C 74.207462 34.203252 74.300723 35.389003 73.727833 36.239013 C 73.157606 37.0757 72.459479 37.496708 71.63345 37.496708 C 71.100529 37.496708 70.602247 37.283539 70.138605 36.857202 C 69.672298 36.417541 69.440478 35.759383 69.440478 34.882727 Z M 84.058519 60.716106 C 84.058519 57.990211 84.218396 55.051148 84.535484 51.898916 C 84.86856 48.733362 85.308221 45.602447 85.854465 42.503507 C 86.398046 39.391245 86.997582 36.577418 87.647747 34.064692 C 87.927531 33.254651 88.201985 32.343355 88.465782 31.330804 C 88.745566 30.320917 89.097294 29.44959 89.523631 28.719488 C 89.963292 27.98672 90.541512 27.621669 91.258291 27.621669 C 91.91112 27.621669 92.316141 27.866813 92.476017 28.359766 C 92.635894 28.839395 92.649217 29.422944 92.515987 30.115743 C 92.382756 30.792553 92.204227 31.418736 91.977736 31.988962 C 91.764567 32.561853 91.631337 32.953551 91.578044 33.166719 C 91.141049 34.802789 90.634773 37.022408 90.061882 39.830905 C 89.491656 42.636738 88.945411 45.701037 88.425813 49.026469 C 87.908879 52.3519 87.509187 55.648021 87.229403 58.92016 C 86.962943 62.178976 86.90965 65.131362 87.069527 67.777318 C 87.242726 70.423274 87.682387 72.453706 88.385843 73.863284 C 89.318456 73.370331 90.083199 72.632235 90.680071 71.648994 C 91.279608 70.676412 91.799207 69.725147 92.236203 68.795199 C 93.485904 66.40238 94.711624 63.868338 95.908033 61.195735 C 97.104442 58.520468 98.362137 56.015736 99.678454 53.673546 C 100.102127 52.810213 100.563104 52.378546 101.053392 52.378546 C 101.279884 52.378546 101.461077 52.471807 101.591643 52.655665 C 101.724873 52.842188 101.791488 53.050027 101.791488 53.276519 C 101.791488 53.433731 101.572991 53.95333 101.13333 54.829986 C 100.696334 55.695983 100.243351 56.593957 99.777044 57.523905 C 99.326726 58.443195 99.020296 59.040067 98.860419 59.319851 C 98.314174 60.462968 97.695985 61.800601 97.005852 63.330087 C 96.326377 64.846249 95.660224 66.341094 95.01006 67.817287 C 94.357231 69.29348 93.733713 70.543182 93.134176 71.569056 C 92.854392 72.006052 92.484011 72.592266 92.017705 73.325033 C 91.564721 74.068459 91.06644 74.713294 90.520195 75.259539 C 89.976615 75.803119 89.350432 76.077573 88.646975 76.077573 C 87.554486 76.077573 86.691153 75.531329 86.051646 74.441504 C 85.428128 73.351679 84.975145 71.987399 84.695361 70.35133 C 84.431565 68.71526 84.258365 67.025899 84.178427 65.283245 C 84.098489 63.543255 84.058519 62.019099 84.058519 60.716106 Z M 102.028639 52.218669 C 103.065171 51.672425 104.210953 50.921005 105.460654 49.964411 C 106.723679 49.005152 107.408483 47.875358 107.515067 46.572364 C 106.808946 46.678949 106.057527 47.057323 105.260809 47.710152 C 104.474749 48.360316 103.797939 49.098413 103.225048 49.924442 C 102.654822 50.734483 102.25513 51.499225 102.028639 52.218669 Z M 98.356808 54.171827 C 98.356808 52.815542 98.804462 51.347343 99.694442 49.764565 C 100.597744 48.181788 101.716879 46.830831 103.046519 45.71436 C 104.389482 44.597889 105.711127 44.038322 107.016786 44.038322 C 108.810067 44.038322 109.748009 44.723126 109.827947 46.092735 C 109.921209 47.44902 109.342989 48.919884 108.093287 50.502662 C 107.427135 51.206118 106.443895 52.024153 105.140901 52.956766 C 103.837908 53.873391 102.56156 54.384996 101.309194 54.49158 C 101.309194 55.370901 101.33584 56.148967 101.389133 56.825777 C 101.442425 57.505253 101.823464 58.195386 102.52692 58.901507 C 103.233042 59.618287 104.131015 59.978009 105.22084 59.978009 C 106.64374 59.978009 108.11194 59.53302 109.628102 58.640376 C 111.157587 57.737074 112.330015 56.985654 113.140056 56.386117 C 113.473132 56.108998 113.731599 55.887835 113.918121 55.727959 C 114.117967 55.554759 114.349788 55.362907 114.616249 55.149739 C 115.759366 54.286406 116.47881 53.6469 116.771917 53.23655 C 117.075682 52.823536 117.336814 52.551746 117.549983 52.418515 C 117.77381 52.285285 118.293408 52.218669 119.103449 52.218669 C 119.223357 52.815542 119.27132 53.223227 119.244674 53.433731 C 119.218028 53.6469 119.012853 53.974646 118.626485 54.411642 C 117.640579 55.397547 116.398872 56.514018 114.896033 57.76372 C 113.406517 59.013421 111.802422 60.103246 110.089079 61.035859 C 108.373071 61.965807 106.670386 62.432114 104.981025 62.432114 C 104.104369 62.432114 103.273011 62.28556 102.486951 61.992453 C 101.703556 61.686023 100.952137 61.174418 100.232693 60.457639 C 99.262775 59.485057 98.703207 58.483164 98.556654 57.443967 C 98.423423 56.407434 98.356808 55.317609 98.356808 54.171827 Z M 118.301402 62.751867 C 117.26487 62.751867 116.593388 62.125684 116.286958 60.875982 C 115.993851 59.626281 115.953882 58.062156 116.167051 56.188936 C 116.393543 54.299729 116.793234 52.418515 117.36346 50.542631 C 117.936351 48.653423 118.575857 47.083969 119.279314 45.834268 C 119.985435 44.584566 120.635599 43.958383 121.235136 43.958383 C 122.165085 43.958383 122.604745 44.384721 122.551453 45.234731 C 122.498161 46.074082 122.22637 47.190553 121.733418 48.586808 C 121.240465 49.96974 120.750177 51.493896 120.257225 53.156612 C 119.764272 54.816663 119.519128 56.43408 119.519128 58.003534 L 123.449426 52.037476 C 123.609302 51.720388 123.961031 51.152826 124.507275 50.342785 C 125.050855 49.519421 125.663715 48.754679 126.340526 48.048557 C 127.020001 47.331778 127.683489 46.972055 128.336318 46.972055 C 128.999805 46.972055 129.519404 47.409051 129.892449 48.288372 L 130.390731 52.855511 C 130.390731 53.348463 130.417377 54.113206 130.470669 55.149739 C 130.523961 56.188936 130.643869 57.238792 130.830391 58.301971 C 131.030237 59.365149 131.341996 60.276445 131.768333 61.035859 C 132.205329 61.792608 132.810195 62.173647 133.582932 62.173647 C 134.392973 62.173647 135.245647 61.686023 136.135626 60.716106 C 137.041593 59.732865 137.910256 58.600407 138.749607 57.324059 C 139.599617 56.034389 140.36436 54.904595 141.043835 53.934677 C 141.733969 52.948772 142.26689 52.458484 142.639936 52.458484 C 143.4633 52.458484 143.849668 52.770243 143.796376 53.393762 C 143.743084 54.019945 143.471293 54.744718 142.978341 55.568082 C 142.485388 56.380788 141.981777 57.137537 141.462179 57.843658 C 140.94258 58.547114 140.630821 58.986775 140.524237 59.159974 C 140.137868 59.652927 139.620934 60.276445 138.968105 61.035859 C 138.317941 61.792608 137.633136 62.504058 136.913692 63.17021 C 136.210236 63.820375 135.53076 64.22806 134.880596 64.387936 C 134.334351 64.545148 133.814753 64.625086 133.324465 64.625086 C 132.072099 64.625086 131.083529 64.166774 130.350762 63.250148 C 129.620659 62.317535 129.061091 61.307649 128.674723 60.217824 C 128.131143 58.581754 127.830042 57.124214 127.77675 55.847866 C 127.723458 54.571519 127.723458 53.481694 127.77675 52.578392 C 127.830042 51.672425 127.718128 50.982291 127.438345 50.502662 C 126.785516 50.928999 126.095382 51.800326 125.362615 53.116643 C 124.632512 54.419636 123.867769 55.82122 123.068387 57.324059 C 122.284992 58.813575 121.493603 60.089923 120.696885 61.155766 C 119.910826 62.218945 119.114108 62.751867 118.301402 62.751867 Z M 148.278247 65.126033 C 148.717907 65.019448 148.949728 64.926187 148.976375 64.846249 C 149.003021 64.752988 149.21086 64.571794 149.594564 64.307998 C 149.861025 64.081506 150.06087 63.900313 150.194101 63.767082 C 150.340654 63.636517 150.519183 63.489963 150.732351 63.330087 L 158.094665 58.262001 C 158.691537 57.875633 159.371012 57.497259 160.127761 57.124214 C 160.887174 56.74051 161.678563 56.545994 162.501927 56.545994 C 163.154756 56.545994 163.751628 56.70587 164.297873 57.025623 C 165.00133 57.465283 165.448984 58.096796 165.635506 58.92016 C 165.832687 59.732865 165.920619 60.537577 165.893973 61.334295 C 165.867327 62.120354 165.854004 62.757196 165.854004 63.250148 C 166.943829 62.42412 168.073623 61.512824 169.246051 60.51626 C 170.415814 59.506374 171.433694 58.50981 172.297027 57.523905 L 177.04536 53.196581 C 177.535648 52.863505 177.863394 52.695634 178.023271 52.695634 C 178.183147 52.695634 178.50823 52.863505 179.001182 53.196581 C 178.94789 53.740161 178.881275 54.065243 178.801337 54.171827 C 178.721398 54.278412 178.513559 54.52622 178.183147 54.909924 C 177.477026 55.775922 176.539084 56.74051 175.369321 57.803689 C 174.199558 58.866868 173.016472 59.919388 171.817398 60.955921 C 170.620989 61.992453 169.584456 62.917072 168.705135 63.727113 C 168.441339 64.006897 168.246823 64.188091 168.126915 64.268029 C 168.020331 64.347967 167.836473 64.491856 167.570012 64.705025 C 166.530815 65.584345 165.819364 66.229181 165.435661 66.642195 C 165.062616 67.039222 164.817472 67.444242 164.697564 67.857256 C 164.59098 68.270271 164.42311 68.896454 164.196618 69.733141 C 163.986114 70.583151 163.49849 71.880815 162.741742 73.623469 C 161.758501 75.856411 160.719304 77.910824 159.629479 79.786708 C 158.552977 81.662593 157.383214 83.557129 156.117525 85.472983 C 155.907021 85.739443 155.725828 85.963271 155.579274 86.149793 C 155.446044 86.349639 155.248863 86.584124 154.982402 86.847921 L 152.128606 90.69828 C 151.531734 91.351109 150.67373 92.262405 149.554595 93.432168 C 148.438124 94.601931 147.220398 95.659781 145.904081 96.603052 C 144.601087 97.562311 143.378032 98.039276 142.234915 98.039276 C 142.021747 98.039276 141.829895 98.025953 141.656695 97.999307 C 141.496819 97.972661 141.336942 97.932692 141.177066 97.879399 C 140.353702 97.562311 139.847426 96.98942 139.660903 96.166056 C 139.474381 95.353351 139.474381 94.482024 139.660903 93.552075 C 139.847426 92.632786 140.079247 91.817415 140.359031 91.097971 C 141.118444 89.528517 141.888516 88.07364 142.671911 86.728013 C 143.471293 85.398374 144.441211 84.050082 145.586993 82.680473 C 145.917404 82.200844 146.231828 81.755854 146.52227 81.34284 C 146.8287 80.929825 147.167105 80.479506 147.540151 79.986554 C 147.819934 79.826677 148.038432 79.661472 148.198309 79.488272 C 148.358185 79.328396 148.552702 79.115227 148.776529 78.848766 C 149.815726 77.599065 151.11872 76.250773 152.688174 74.801226 C 154.270951 73.362337 155.632566 72.046021 156.775683 70.849612 L 161.76383 66.679499 C 162.203491 66.189211 162.51525 65.464438 162.701773 64.505179 C 162.888295 63.548585 162.994879 62.583996 163.021526 61.614079 C 163.048172 60.630838 162.95491 59.892742 162.741742 59.399789 C 161.705209 59.399789 160.719304 59.658256 159.789356 60.177855 C 158.87273 60.697453 158.086671 61.174418 157.436506 61.614079 C 156.18414 62.370828 155.147608 63.03698 154.324244 63.609871 C 153.511538 64.180097 152.720149 64.766311 151.950078 65.363183 C 151.190664 65.96272 150.239399 66.727462 149.096282 67.657411 C 148.709914 67.923872 148.113041 68.382184 147.300336 69.035013 C 146.490295 69.698501 145.752198 70.031577 145.086046 70.031577 C 144.82225 70.031577 144.609081 69.946309 144.449205 69.77311 C 144.009544 69.333449 143.977569 68.621999 144.34795 67.638758 C 144.734318 66.668841 145.240593 65.696259 145.864112 64.726341 C 146.490295 63.740436 146.916632 63.055632 147.140459 62.671928 L 152.848051 53.196581 C 153.391631 52.210676 153.991168 51.067559 154.641332 49.764565 C 155.307484 48.448249 155.880375 47.137261 156.35734 45.834268 C 156.850292 44.531274 157.095436 43.388157 157.095436 42.402252 C 156.39198 42.508836 155.600591 42.881882 154.72127 43.521388 C 153.857937 44.144906 153.205108 44.69648 152.768112 45.176109 C 152.395067 45.509185 152.069985 45.775646 151.790201 45.972827 C 151.52374 46.15935 151.198658 46.439134 150.81229 46.812179 C 150.492537 47.198547 150.220747 47.528959 149.994255 47.808743 C 149.781086 48.075203 149.48265 48.400286 149.096282 48.786654 C 147.513504 50.356108 146.463649 51.632456 145.94405 52.615696 C 145.427116 53.601601 145.112692 54.339698 145.006108 54.829986 C 144.899524 55.322938 144.694349 55.648021 144.387919 55.807897 C 144.097476 55.967774 143.378032 56.047712 142.234915 56.047712 C 141.741963 55.237671 141.523465 54.558196 141.576757 54.014616 C 141.630049 53.468371 141.955131 52.842188 142.554668 52.138731 C 143.15154 51.419287 143.969575 50.462693 145.006108 49.266283 C 145.392476 48.826623 146.058628 48.133825 147.0019 47.190553 C 147.958494 46.233959 149.064307 45.221408 150.314008 44.158229 C 151.577032 43.09505 152.834728 42.183754 154.084429 41.427005 C 155.33413 40.667592 156.397309 40.289218 157.27663 40.289218 C 158.193255 40.289218 158.792792 40.720884 159.069911 41.584217 C 159.28308 42.410246 159.237782 43.406809 158.931352 44.576573 C 158.638245 45.749 158.206578 46.972055 157.633687 48.248403 C 157.063461 49.52475 156.49057 50.68119 155.920344 51.720388 C 155.347453 52.75692 154.902464 53.574955 154.582711 54.171827 C 154.409511 54.504904 153.996497 55.203031 153.346332 56.268874 C 152.693503 57.31873 151.982053 58.488493 151.211981 59.778164 C 150.452568 61.054511 149.78908 62.213616 149.216189 63.250148 C 148.643298 64.273358 148.331539 64.899541 148.278247 65.126033 Z M 141.736633 95.188145 C 141.736633 95.625141 141.928485 95.846303 142.314853 95.846303 C 143.01831 95.846303 143.916283 95.39332 145.006108 94.490018 C 146.098597 93.597374 147.215068 92.520872 148.358185 91.257848 C 149.501302 90.008146 150.519183 88.811737 151.411827 87.665955 C 152.315129 86.522838 152.933318 85.704804 153.266394 85.214516 C 153.759347 84.455102 154.396188 83.437222 155.182248 82.160874 C 155.978965 80.884527 156.770354 79.520247 157.553749 78.0707 C 158.339809 76.621153 159.056588 75.219569 159.709417 73.863284 C 160.375569 72.506998 160.812565 71.361216 161.025734 70.431268 C 160.586073 70.764344 159.989201 71.241309 159.229788 71.867492 C 158.473039 72.493675 157.721619 73.130516 156.975529 73.783345 C 156.245426 74.43351 155.632566 74.979755 155.142278 75.419415 C 154.156373 76.229456 153.2584 77.114106 152.448359 78.0707 C 151.635654 79.029959 150.766991 79.994548 149.834378 80.964465 L 147.380274 83.99679 C 146.676817 84.926738 145.885429 86.029886 145.006108 87.308898 C 144.142775 88.585245 143.378032 89.901562 142.71188 91.257848 C 142.061716 92.627456 141.736633 93.938444 141.736633 95.188145 Z M 182.025513 67.319005 C 180.935688 67.319005 179.963106 66.967277 179.113096 66.261156 C 178.273744 65.557699 177.636903 64.824932 177.197242 64.068183 C 176.227325 62.205622 175.667757 60.009985 175.521204 57.483936 C 175.387973 54.944564 175.542521 52.642342 175.979516 50.5826 C 176.086101 49.983063 176.232654 49.266283 176.419177 48.426932 C 176.619022 47.576922 176.904135 46.825502 177.277181 46.172673 C 177.663549 45.509185 178.127191 45.176109 178.673435 45.176109 C 179.923137 45.176109 180.535997 45.602447 180.509351 46.452457 C 180.482705 47.291808 180.250884 48.600131 179.811223 50.382754 C 179.384886 52.152054 179.171717 54.419636 179.171717 57.1855 C 179.171717 58.008864 179.278302 58.994769 179.49147 60.137886 C 179.704639 61.281003 180.043044 62.290889 180.509351 63.17021 C 180.975657 64.033543 181.559206 64.46521 182.265328 64.46521 C 183.141984 64.46521 184.138547 64.086835 185.257683 63.330087 C 186.374154 62.55735 187.405357 61.699346 188.348629 60.756075 C 189.305223 59.79948 189.979369 59.074707 190.363073 58.581754 C 190.469657 58.47517 190.768093 58.110119 191.261046 57.483936 C 191.753998 56.860417 192.337547 56.154296 193.017023 55.370901 C 193.696498 54.571519 194.359985 53.873391 195.012814 53.276519 C 195.662979 52.676982 196.182577 52.378546 196.568946 52.378546 C 196.952649 52.378546 197.147166 52.703628 197.147166 53.353793 C 197.147166 53.740161 196.886034 54.326375 196.3691 55.10977 C 195.849501 55.895829 195.231312 56.727187 194.511868 57.603843 C 193.808411 58.469841 193.115613 59.285211 192.438803 60.057947 C 191.759327 60.814696 191.255716 61.360941 190.92264 61.694017 C 190.269811 62.344182 189.491746 63.122247 188.588443 64.028214 C 187.698464 64.918193 186.70723 65.69093 185.61474 66.341094 C 184.524916 66.993923 183.328506 67.319005 182.025513 67.319005 Z M 179.411532 34.882727 C 179.411532 33.966102 179.656676 33.166719 180.149629 32.489909 C 180.642581 31.79711 181.186161 31.450711 181.785698 31.450711 C 182.438527 31.450711 182.982107 31.863726 183.421768 32.68709 C 184.178516 34.203252 184.271778 35.389003 183.701552 36.239013 C 183.128661 37.0757 182.430533 37.496708 181.607169 37.496708 C 181.074248 37.496708 180.575966 37.283539 180.109659 36.857202 C 179.643353 36.417541 179.411532 35.759383 179.411532 34.882727 Z M 197.959871 65.126033 C 198.772577 64.899541 199.50268 64.174767 200.155509 62.951712 C 200.818996 61.725992 201.285303 60.329738 201.551763 58.760283 C 201.831547 57.177506 201.898162 55.72263 201.751609 54.39299 C 201.618379 53.050027 201.200035 52.130737 200.493914 51.640449 C 200.320714 52.237322 200.014284 53.095326 199.577289 54.211797 C 199.150951 55.330932 198.732608 56.559317 198.319593 57.902279 C 197.919902 59.234583 197.648112 60.537577 197.501559 61.813924 C 197.368328 63.090272 197.522875 64.19342 197.959871 65.126033 Z M 193.869697 62.352175 C 193.869697 61.632731 194.016251 60.582875 194.309358 59.199944 C 194.615788 57.803689 195.042125 56.306179 195.585705 54.712743 C 196.13195 53.103319 196.74481 51.579163 197.42162 50.14294 C 198.101095 48.693393 198.831198 47.502313 199.617258 46.572364 C 200.413976 45.642416 201.226681 45.176109 202.050045 45.176109 C 202.59629 45.176109 202.974664 45.421253 203.187833 45.914206 C 203.401002 46.407158 203.454294 46.817508 203.347709 47.150584 C 203.241125 47.417045 203.033286 47.688835 202.726856 47.968619 C 202.436413 48.23508 202.183276 48.533516 201.970107 48.866592 C 202.076691 49.239637 202.343152 49.657981 202.766825 50.124287 C 203.206485 50.587929 203.646146 51.206118 204.085806 51.978855 C 204.522802 52.735604 204.81058 53.766807 204.94381 55.0698 C 205.074376 56.372794 204.922493 58.088802 204.482833 60.217824 C 203.88596 63.050303 202.934695 65.179325 201.631702 66.602226 C 200.328708 68.011804 199.049696 68.71526 197.799995 68.71526 C 196.763462 68.71526 195.846837 68.182339 195.047454 67.11916 C 194.264059 66.055981 193.869697 64.46521 193.869697 62.352175 Z M 193.869697 62.352175 " stroke="#fffef9" stroke-width="6.128468" stroke-opacity="1" stroke-miterlimit="4"/><g fill="#122620" fill-opacity="1"><g transform="translate(22.908848, 199.067502)"><g><path d="M 32.8125 55.34375 C 34.65625 55.34375 36.710938 54.722656 38.984375 53.484375 C 41.265625 52.242188 43.421875 50.785156 45.453125 49.109375 C 47.492188 47.429688 49.03125 45.875 50.0625 44.4375 C 50.707031 43.632812 51.269531 42.929688 51.75 42.328125 C 52.226562 41.734375 52.742188 41.039062 53.296875 40.25 C 53.703125 39.445312 54.144531 38.707031 54.625 38.03125 C 55.101562 37.351562 55.5 36.613281 55.8125 35.8125 C 57.09375 33.332031 57.929688 31.175781 58.328125 29.34375 C 58.734375 27.507812 58.914062 25.691406 58.875 23.890625 C 58.832031 22.097656 58.691406 20.082031 58.453125 17.84375 C 57.890625 18.007812 57.445312 18.226562 57.125 18.5 C 56.8125 18.78125 56.375 19.125 55.8125 19.53125 C 55.5 19.84375 55.160156 20.117188 54.796875 20.359375 C 54.441406 20.597656 54.0625 20.878906 53.65625 21.203125 L 47.1875 26.953125 C 45.03125 28.953125 43.273438 30.566406 41.921875 31.796875 C 40.566406 33.035156 39.269531 34.332031 38.03125 35.6875 C 36.789062 37.050781 35.253906 38.96875 33.421875 41.4375 C 32.859375 42.15625 32.15625 43.15625 31.3125 44.4375 C 30.476562 45.71875 29.742188 47.078125 29.109375 48.515625 C 28.472656 49.953125 28.15625 51.226562 28.15625 52.34375 C 28.15625 53.78125 28.453125 54.640625 29.046875 54.921875 C 29.648438 55.203125 30.664062 55.34375 32.09375 55.34375 C 32.257812 55.34375 32.398438 55.34375 32.515625 55.34375 C 32.640625 55.34375 32.738281 55.34375 32.8125 55.34375 Z M 0 -14.25 C 0 -18.5625 0.738281 -23.070312 2.21875 -27.78125 C 3.695312 -32.5 5.570312 -37.132812 7.84375 -41.6875 C 10.125 -46.238281 12.421875 -50.3125 14.734375 -53.90625 C 15.773438 -55.820312 17.113281 -57.875 18.75 -60.0625 C 20.382812 -62.257812 22.097656 -64.4375 23.890625 -66.59375 C 25.691406 -68.75 27.351562 -70.628906 28.875 -72.234375 C 31.582031 -74.867188 34.332031 -77.28125 37.125 -79.46875 C 39.925781 -81.664062 42.941406 -83.441406 46.171875 -84.796875 C 49.410156 -86.160156 52.984375 -86.84375 56.890625 -86.84375 C 60.722656 -86.601562 63.859375 -85.144531 66.296875 -82.46875 C 68.734375 -79.789062 70.550781 -76.492188 71.75 -72.578125 C 72.945312 -68.671875 73.546875 -64.640625 73.546875 -60.484375 C 73.546875 -55.773438 73.066406 -50.984375 72.109375 -46.109375 C 71.148438 -41.242188 70.113281 -36.691406 69 -32.453125 C 68.59375 -30.617188 68.171875 -29.003906 67.734375 -27.609375 C 67.296875 -26.210938 66.398438 -25.515625 65.046875 -25.515625 C 64.085938 -25.515625 63.566406 -26.234375 63.484375 -27.671875 C 63.398438 -29.109375 63.535156 -30.84375 63.890625 -32.875 C 64.253906 -34.914062 64.65625 -36.8125 65.09375 -38.5625 C 65.539062 -40.320312 65.84375 -41.484375 66 -42.046875 C 66.5625 -45.472656 67.0625 -49.160156 67.5 -53.109375 C 67.9375 -57.066406 67.992188 -61.003906 67.671875 -64.921875 C 67.359375 -68.835938 66.363281 -72.390625 64.6875 -75.578125 C 63.488281 -77.898438 62.050781 -79.519531 60.375 -80.4375 C 58.695312 -81.351562 56.898438 -81.8125 54.984375 -81.8125 C 53.304688 -81.8125 51.609375 -81.507812 49.890625 -80.90625 C 48.171875 -80.3125 46.515625 -79.578125 44.921875 -78.703125 C 43.796875 -77.984375 42.535156 -77.160156 41.140625 -76.234375 C 39.742188 -75.316406 38.566406 -74.378906 37.609375 -73.421875 C 37.046875 -72.867188 36.503906 -72.410156 35.984375 -72.046875 C 35.472656 -71.691406 34.9375 -71.191406 34.375 -70.546875 L 20.25 -53.65625 C 18.644531 -51.1875 17.382812 -49.128906 16.46875 -47.484375 C 15.550781 -45.847656 14.535156 -43.992188 13.421875 -41.921875 C 12.296875 -40.160156 11.132812 -37.898438 9.9375 -35.140625 C 8.738281 -32.390625 7.703125 -29.597656 6.828125 -26.765625 C 5.953125 -23.929688 5.3125 -21.519531 4.90625 -19.53125 C 4.664062 -17.6875 4.503906 -15.882812 4.421875 -14.125 C 4.347656 -12.375 4.59375 -10.617188 5.15625 -8.859375 C 5.945312 -6.867188 7.421875 -5.453125 9.578125 -4.609375 C 11.734375 -3.773438 14.128906 -3.273438 16.765625 -3.109375 C 19.398438 -2.953125 21.796875 -2.832031 23.953125 -2.75 C 26.828125 -2.59375 29.421875 -2.492188 31.734375 -2.453125 C 34.054688 -2.410156 36.375 -2.269531 38.6875 -2.03125 C 41 -1.789062 43.554688 -1.191406 46.359375 -0.234375 C 47.953125 0.242188 49.726562 1.039062 51.6875 2.15625 C 53.644531 3.269531 55.421875 4.585938 57.015625 6.109375 C 58.609375 7.628906 59.609375 9.226562 60.015625 10.90625 C 61.765625 9.707031 63.796875 8.164062 66.109375 6.28125 C 68.429688 4.40625 70.769531 2.46875 73.125 0.46875 C 75.476562 -1.519531 77.535156 -3.234375 79.296875 -4.671875 L 88.515625 -12.8125 C 89.316406 -13.613281 90.078125 -14.289062 90.796875 -14.84375 C 91.515625 -15.40625 92.269531 -16.085938 93.0625 -16.890625 C 94.425781 -18.328125 95.445312 -19.285156 96.125 -19.765625 C 96.800781 -20.242188 97.378906 -20.484375 97.859375 -20.484375 C 98.179688 -20.484375 98.460938 -20.441406 98.703125 -20.359375 C 98.941406 -20.285156 99.21875 -20.207031 99.53125 -20.125 C 99.53125 -19.320312 99.609375 -18.84375 99.765625 -18.6875 C 99.929688 -18.53125 99.992188 -18.390625 99.953125 -18.265625 C 99.910156 -18.148438 99.628906 -17.867188 99.109375 -17.421875 C 98.597656 -16.984375 97.660156 -16.085938 96.296875 -14.734375 C 93.660156 -12.179688 91.242188 -9.945312 89.046875 -8.03125 C 86.859375 -6.113281 84.523438 -3.957031 82.046875 -1.5625 L 74.390625 4.671875 C 73.742188 5.148438 72.800781 5.890625 71.5625 6.890625 C 70.332031 7.890625 69.015625 8.945312 67.609375 10.0625 C 66.210938 11.175781 64.972656 12.191406 63.890625 13.109375 C 62.816406 14.035156 62.160156 14.695312 61.921875 15.09375 C 62.242188 16.375 62.523438 17.671875 62.765625 18.984375 C 63.003906 20.304688 63.125 21.722656 63.125 23.234375 C 63.125 27.472656 62.144531 31.707031 60.1875 35.9375 C 58.226562 40.164062 55.710938 44.054688 52.640625 47.609375 C 49.566406 51.160156 46.3125 53.992188 42.875 56.109375 C 39.445312 58.234375 36.253906 59.296875 33.296875 59.296875 C 32.179688 59.296875 30.925781 59.175781 29.53125 58.9375 C 28.132812 58.695312 26.914062 58.195312 25.875 57.4375 C 24.832031 56.675781 24.3125 55.457031 24.3125 53.78125 C 24.3125 50.820312 24.8125 48.265625 25.8125 46.109375 C 26.8125 43.953125 28.191406 41.675781 29.953125 39.28125 C 32.578125 35.613281 35.328125 32.421875 38.203125 29.703125 C 41.078125 26.992188 44.113281 24.238281 47.3125 21.4375 L 56.890625 13.53125 C 54.734375 9.457031 52.019531 6.640625 48.75 5.078125 C 45.476562 3.523438 41.484375 2.472656 36.765625 1.921875 L 27.078125 1.203125 C 23.316406 1.117188 19.816406 1.035156 16.578125 0.953125 C 13.347656 0.878906 10.378906 0.320312 7.671875 -0.71875 C 5.109375 -1.675781 3.1875 -3.3125 1.90625 -5.625 C 0.632812 -7.945312 0 -10.820312 0 -14.25 Z M 0 -14.25 "/></g></g></g><g fill="#122620" fill-opacity="1"><g transform="translate(118.249627, 199.067502)"><g><path d="M 9.9375 0.484375 C 8.34375 0.484375 6.925781 -0.0351562 5.6875 -1.078125 C 4.445312 -2.117188 3.507812 -3.195312 2.875 -4.3125 C 1.4375 -7.03125 0.617188 -10.242188 0.421875 -13.953125 C 0.222656 -17.671875 0.441406 -21.046875 1.078125 -24.078125 C 1.234375 -24.953125 1.453125 -26.007812 1.734375 -27.25 C 2.015625 -28.488281 2.429688 -29.585938 2.984375 -30.546875 C 3.546875 -31.503906 4.226562 -31.984375 5.03125 -31.984375 C 6.863281 -31.984375 7.757812 -31.363281 7.71875 -30.125 C 7.6875 -28.882812 7.347656 -26.96875 6.703125 -24.375 C 6.066406 -21.78125 5.75 -18.445312 5.75 -14.375 C 5.75 -13.175781 5.90625 -11.738281 6.21875 -10.0625 C 6.539062 -8.382812 7.039062 -6.90625 7.71875 -5.625 C 8.40625 -4.351562 9.265625 -3.71875 10.296875 -3.71875 C 11.578125 -3.71875 13.035156 -4.273438 14.671875 -5.390625 C 16.304688 -6.503906 17.820312 -7.757812 19.21875 -9.15625 C 20.625 -10.5625 21.601562 -11.625 22.15625 -12.34375 C 22.320312 -12.5 22.765625 -13.035156 23.484375 -13.953125 C 24.203125 -14.867188 25.054688 -15.90625 26.046875 -17.0625 C 27.046875 -18.226562 28.023438 -19.25 28.984375 -20.125 C 29.941406 -21 30.703125 -21.4375 31.265625 -21.4375 C 31.816406 -21.4375 32.09375 -20.957031 32.09375 -20 C 32.09375 -19.445312 31.710938 -18.585938 30.953125 -17.421875 C 30.203125 -16.265625 29.304688 -15.046875 28.265625 -13.765625 C 27.234375 -12.492188 26.21875 -11.296875 25.21875 -10.171875 C 24.21875 -9.054688 23.476562 -8.257812 23 -7.78125 C 22.039062 -6.820312 20.898438 -5.679688 19.578125 -4.359375 C 18.265625 -3.046875 16.804688 -1.910156 15.203125 -0.953125 C 13.609375 0.00390625 11.851562 0.484375 9.9375 0.484375 Z M 6.109375 -47.078125 C 6.109375 -48.429688 6.46875 -49.609375 7.1875 -50.609375 C 7.90625 -51.609375 8.703125 -52.109375 9.578125 -52.109375 C 10.535156 -52.109375 11.335938 -51.507812 11.984375 -50.3125 C 13.097656 -48.070312 13.234375 -46.332031 12.390625 -45.09375 C 11.554688 -43.851562 10.539062 -43.234375 9.34375 -43.234375 C 8.539062 -43.234375 7.800781 -43.550781 7.125 -44.1875 C 6.445312 -44.832031 6.109375 -45.796875 6.109375 -47.078125 Z M 6.109375 -47.078125 "/></g></g></g><g fill="#122620" fill-opacity="1"><g transform="translate(145.558292, 199.067502)"><g><path d="M 0.234375 -9.21875 C 0.234375 -13.21875 0.472656 -17.53125 0.953125 -22.15625 C 1.429688 -26.789062 2.070312 -31.382812 2.875 -35.9375 C 3.675781 -40.488281 4.554688 -44.597656 5.515625 -48.265625 C 5.910156 -49.460938 6.304688 -50.800781 6.703125 -52.28125 C 7.109375 -53.757812 7.628906 -55.035156 8.265625 -56.109375 C 8.898438 -57.191406 9.738281 -57.734375 10.78125 -57.734375 C 11.738281 -57.734375 12.335938 -57.375 12.578125 -56.65625 C 12.816406 -55.9375 12.835938 -55.078125 12.640625 -54.078125 C 12.441406 -53.078125 12.179688 -52.15625 11.859375 -51.3125 C 11.535156 -50.476562 11.335938 -49.90625 11.265625 -49.59375 C 10.617188 -47.195312 9.875 -43.941406 9.03125 -39.828125 C 8.195312 -35.710938 7.398438 -31.21875 6.640625 -26.34375 C 5.890625 -21.476562 5.3125 -16.648438 4.90625 -11.859375 C 4.507812 -7.066406 4.429688 -2.734375 4.671875 1.140625 C 4.910156 5.015625 5.550781 7.988281 6.59375 10.0625 C 7.945312 9.34375 9.0625 8.265625 9.9375 6.828125 C 10.820312 5.390625 11.582031 3.992188 12.21875 2.640625 C 14.050781 -0.878906 15.847656 -4.59375 17.609375 -8.5 C 19.367188 -12.414062 21.207031 -16.09375 23.125 -19.53125 C 23.757812 -20.800781 24.4375 -21.4375 25.15625 -21.4375 C 25.476562 -21.4375 25.738281 -21.296875 25.9375 -21.015625 C 26.132812 -20.742188 26.234375 -20.445312 26.234375 -20.125 C 26.234375 -19.882812 25.910156 -19.125 25.265625 -17.84375 C 24.628906 -16.570312 23.972656 -15.253906 23.296875 -13.890625 C 22.617188 -12.535156 22.160156 -11.660156 21.921875 -11.265625 C 21.117188 -9.585938 20.21875 -7.628906 19.21875 -5.390625 C 18.226562 -3.148438 17.253906 -0.953125 16.296875 1.203125 C 15.335938 3.359375 14.414062 5.191406 13.53125 6.703125 C 13.132812 7.347656 12.597656 8.207031 11.921875 9.28125 C 11.242188 10.363281 10.503906 11.300781 9.703125 12.09375 C 8.898438 12.894531 7.984375 13.296875 6.953125 13.296875 C 5.347656 13.296875 4.085938 12.492188 3.171875 10.890625 C 2.253906 9.296875 1.59375 7.300781 1.1875 4.90625 C 0.789062 2.507812 0.53125 0.0351562 0.40625 -2.515625 C 0.289062 -5.066406 0.234375 -7.300781 0.234375 -9.21875 Z M 0.234375 -9.21875 "/></g></g></g><g fill="#122620" fill-opacity="1"><g transform="translate(166.638665, 199.067502)"><g><path d="M 5.515625 -21.6875 C 7.023438 -22.476562 8.695312 -23.570312 10.53125 -24.96875 C 12.375 -26.375 13.375 -28.035156 13.53125 -29.953125 C 12.5 -29.785156 11.398438 -29.222656 10.234375 -28.265625 C 9.078125 -27.304688 8.078125 -26.226562 7.234375 -25.03125 C 6.398438 -23.832031 5.828125 -22.71875 5.515625 -21.6875 Z M 0.125 -18.8125 C 0.125 -20.800781 0.78125 -22.953125 2.09375 -25.265625 C 3.414062 -27.585938 5.050781 -29.566406 7 -31.203125 C 8.957031 -32.835938 10.894531 -33.65625 12.8125 -33.65625 C 15.445312 -33.65625 16.820312 -32.65625 16.9375 -30.65625 C 17.0625 -28.664062 16.207031 -26.515625 14.375 -24.203125 C 13.414062 -23.160156 11.976562 -21.957031 10.0625 -20.59375 C 8.144531 -19.238281 6.269531 -18.484375 4.4375 -18.328125 C 4.4375 -17.046875 4.472656 -15.90625 4.546875 -14.90625 C 4.628906 -13.914062 5.191406 -12.898438 6.234375 -11.859375 C 7.265625 -10.816406 8.582031 -10.296875 10.1875 -10.296875 C 12.257812 -10.296875 14.410156 -10.953125 16.640625 -12.265625 C 18.878906 -13.585938 20.597656 -14.691406 21.796875 -15.578125 C 22.273438 -15.972656 22.65625 -16.289062 22.9375 -16.53125 C 23.21875 -16.769531 23.554688 -17.050781 23.953125 -17.375 C 25.628906 -18.644531 26.6875 -19.578125 27.125 -20.171875 C 27.570312 -20.773438 27.953125 -21.175781 28.265625 -21.375 C 28.585938 -21.582031 29.347656 -21.6875 30.546875 -21.6875 C 30.703125 -20.800781 30.757812 -20.195312 30.71875 -19.875 C 30.675781 -19.5625 30.378906 -19.085938 29.828125 -18.453125 C 28.390625 -17.015625 26.570312 -15.375 24.375 -13.53125 C 22.175781 -11.695312 19.816406 -10.097656 17.296875 -8.734375 C 14.785156 -7.378906 12.296875 -6.703125 9.828125 -6.703125 C 8.546875 -6.703125 7.328125 -6.921875 6.171875 -7.359375 C 5.015625 -7.804688 3.914062 -8.546875 2.875 -9.578125 C 1.4375 -11.015625 0.617188 -12.492188 0.421875 -14.015625 C 0.222656 -15.535156 0.125 -17.132812 0.125 -18.8125 Z M 0.125 -18.8125 "/></g></g></g><g fill="#122620" fill-opacity="1"><g transform="translate(192.629818, 199.067502)"><g><path d="M 3.359375 -6.234375 C 1.835938 -6.234375 0.859375 -7.148438 0.421875 -8.984375 C -0.015625 -10.816406 -0.078125 -13.109375 0.234375 -15.859375 C 0.554688 -18.617188 1.132812 -21.375 1.96875 -24.125 C 2.8125 -26.882812 3.75 -29.179688 4.78125 -31.015625 C 5.820312 -32.859375 6.785156 -33.78125 7.671875 -33.78125 C 9.023438 -33.78125 9.660156 -33.160156 9.578125 -31.921875 C 9.503906 -30.679688 9.109375 -29.039062 8.390625 -27 C 7.671875 -24.96875 6.953125 -22.734375 6.234375 -20.296875 C 5.515625 -17.867188 5.15625 -15.492188 5.15625 -13.171875 L 10.90625 -21.921875 C 11.144531 -22.398438 11.660156 -23.238281 12.453125 -24.4375 C 13.253906 -25.632812 14.15625 -26.75 15.15625 -27.78125 C 16.15625 -28.820312 17.132812 -29.34375 18.09375 -29.34375 C 19.050781 -29.34375 19.804688 -28.707031 20.359375 -27.4375 L 21.078125 -20.71875 C 21.078125 -20 21.117188 -18.878906 21.203125 -17.359375 C 21.285156 -15.847656 21.460938 -14.3125 21.734375 -12.75 C 22.015625 -11.195312 22.472656 -9.859375 23.109375 -8.734375 C 23.753906 -7.617188 24.632812 -7.0625 25.75 -7.0625 C 26.945312 -7.0625 28.203125 -7.78125 29.515625 -9.21875 C 30.835938 -10.65625 32.117188 -12.3125 33.359375 -14.1875 C 34.597656 -16.070312 35.710938 -17.734375 36.703125 -19.171875 C 37.703125 -20.609375 38.484375 -21.328125 39.046875 -21.328125 C 40.242188 -21.328125 40.800781 -20.863281 40.71875 -19.9375 C 40.644531 -19.019531 40.25 -17.960938 39.53125 -16.765625 C 38.8125 -15.566406 38.070312 -14.445312 37.3125 -13.40625 C 36.550781 -12.375 36.09375 -11.738281 35.9375 -11.5 C 35.375 -10.78125 34.613281 -9.859375 33.65625 -8.734375 C 32.695312 -7.617188 31.695312 -6.582031 30.65625 -5.625 C 29.625 -4.664062 28.628906 -4.066406 27.671875 -3.828125 C 26.867188 -3.585938 26.109375 -3.46875 25.390625 -3.46875 C 23.554688 -3.46875 22.097656 -4.144531 21.015625 -5.5 C 19.941406 -6.863281 19.125 -8.34375 18.5625 -9.9375 C 17.769531 -12.332031 17.332031 -14.46875 17.25 -16.34375 C 17.164062 -18.226562 17.164062 -19.828125 17.25 -21.140625 C 17.332031 -22.460938 17.171875 -23.484375 16.765625 -24.203125 C 15.804688 -23.554688 14.785156 -22.273438 13.703125 -20.359375 C 12.628906 -18.441406 11.515625 -16.382812 10.359375 -14.1875 C 9.203125 -12 8.046875 -10.125 6.890625 -8.5625 C 5.734375 -7.007812 4.554688 -6.234375 3.359375 -6.234375 Z M 3.359375 -6.234375 "/></g></g></g><g fill="#122620" fill-opacity="1"><g transform="translate(228.562273, 199.067502)"><g><path d="M 11.375 -2.75 C 12.019531 -2.914062 12.359375 -3.054688 12.390625 -3.171875 C 12.429688 -3.296875 12.734375 -3.554688 13.296875 -3.953125 C 13.691406 -4.273438 13.988281 -4.535156 14.1875 -4.734375 C 14.394531 -4.929688 14.65625 -5.148438 14.96875 -5.390625 L 25.75 -12.8125 C 26.632812 -13.375 27.632812 -13.929688 28.75 -14.484375 C 29.863281 -15.046875 31.019531 -15.328125 32.21875 -15.328125 C 33.175781 -15.328125 34.054688 -15.085938 34.859375 -14.609375 C 35.890625 -13.972656 36.546875 -13.054688 36.828125 -11.859375 C 37.109375 -10.660156 37.226562 -9.484375 37.1875 -8.328125 C 37.144531 -7.171875 37.125 -6.234375 37.125 -5.515625 C 38.726562 -6.710938 40.382812 -8.046875 42.09375 -9.515625 C 43.8125 -10.992188 45.3125 -12.453125 46.59375 -13.890625 L 53.546875 -20.25 C 54.265625 -20.726562 54.742188 -20.96875 54.984375 -20.96875 C 55.222656 -20.96875 55.703125 -20.726562 56.421875 -20.25 C 56.335938 -19.445312 56.234375 -18.960938 56.109375 -18.796875 C 55.992188 -18.640625 55.695312 -18.285156 55.21875 -17.734375 C 54.175781 -16.453125 52.796875 -15.03125 51.078125 -13.46875 C 49.367188 -11.914062 47.632812 -10.378906 45.875 -8.859375 C 44.113281 -7.347656 42.597656 -5.992188 41.328125 -4.796875 C 40.921875 -4.390625 40.640625 -4.125 40.484375 -4 C 40.328125 -3.882812 40.046875 -3.671875 39.640625 -3.359375 C 38.128906 -2.078125 37.09375 -1.132812 36.53125 -0.53125 C 35.96875 0.0625 35.609375 0.65625 35.453125 1.25 C 35.296875 1.851562 35.054688 2.773438 34.734375 4.015625 C 34.410156 5.253906 33.691406 7.148438 32.578125 9.703125 C 31.140625 12.972656 29.625 15.984375 28.03125 18.734375 C 26.4375 21.492188 24.71875 24.273438 22.875 27.078125 C 22.5625 27.472656 22.300781 27.8125 22.09375 28.09375 C 21.894531 28.375 21.597656 28.710938 21.203125 29.109375 L 17.015625 34.734375 C 16.128906 35.691406 14.867188 37.03125 13.234375 38.75 C 11.597656 40.46875 9.820312 42.023438 7.90625 43.421875 C 5.988281 44.816406 4.191406 45.515625 2.515625 45.515625 C 2.191406 45.515625 1.910156 45.492188 1.671875 45.453125 C 1.429688 45.410156 1.191406 45.351562 0.953125 45.28125 C -0.242188 44.800781 -0.976562 43.960938 -1.25 42.765625 C -1.53125 41.566406 -1.53125 40.285156 -1.25 38.921875 C -0.976562 37.566406 -0.640625 36.367188 -0.234375 35.328125 C 0.878906 33.015625 2.015625 30.878906 3.171875 28.921875 C 4.328125 26.972656 5.742188 25 7.421875 23 C 7.898438 22.28125 8.359375 21.617188 8.796875 21.015625 C 9.242188 20.421875 9.742188 19.765625 10.296875 19.046875 C 10.703125 18.804688 11.023438 18.566406 11.265625 18.328125 C 11.503906 18.085938 11.78125 17.769531 12.09375 17.375 C 13.613281 15.53125 15.53125 13.550781 17.84375 11.4375 C 20.164062 9.320312 22.164062 7.382812 23.84375 5.625 L 31.140625 -0.484375 C 31.773438 -1.203125 32.234375 -2.257812 32.515625 -3.65625 C 32.796875 -5.050781 32.957031 -6.46875 33 -7.90625 C 33.039062 -9.34375 32.898438 -10.421875 32.578125 -11.140625 C 31.054688 -11.140625 29.617188 -10.757812 28.265625 -10 C 26.910156 -9.238281 25.753906 -8.539062 24.796875 -7.90625 C 22.960938 -6.789062 21.445312 -5.8125 20.25 -4.96875 C 19.050781 -4.132812 17.890625 -3.273438 16.765625 -2.390625 C 15.648438 -1.515625 14.253906 -0.398438 12.578125 0.953125 C 12.015625 1.359375 11.132812 2.039062 9.9375 3 C 8.738281 3.957031 7.660156 4.4375 6.703125 4.4375 C 6.304688 4.4375 5.988281 4.316406 5.75 4.078125 C 5.113281 3.429688 5.070312 2.390625 5.625 0.953125 C 6.1875 -0.484375 6.925781 -1.921875 7.84375 -3.359375 C 8.757812 -4.796875 9.378906 -5.789062 9.703125 -6.34375 L 18.09375 -20.25 C 18.882812 -21.6875 19.757812 -23.363281 20.71875 -25.28125 C 21.675781 -27.195312 22.515625 -29.109375 23.234375 -31.015625 C 23.953125 -32.929688 24.3125 -34.609375 24.3125 -36.046875 C 23.28125 -35.890625 22.125 -35.351562 20.84375 -34.4375 C 19.5625 -33.519531 18.601562 -32.703125 17.96875 -31.984375 C 17.40625 -31.503906 16.925781 -31.125 16.53125 -30.84375 C 16.132812 -30.5625 15.65625 -30.144531 15.09375 -29.59375 C 14.613281 -29.03125 14.210938 -28.546875 13.890625 -28.140625 C 13.578125 -27.742188 13.140625 -27.269531 12.578125 -26.71875 C 10.265625 -24.394531 8.726562 -22.515625 7.96875 -21.078125 C 7.207031 -19.640625 6.742188 -18.5625 6.578125 -17.84375 C 6.421875 -17.125 6.125 -16.644531 5.6875 -16.40625 C 5.25 -16.164062 4.191406 -16.046875 2.515625 -16.046875 C 1.796875 -17.242188 1.472656 -18.242188 1.546875 -19.046875 C 1.628906 -19.847656 2.109375 -20.765625 2.984375 -21.796875 C 3.867188 -22.835938 5.070312 -24.238281 6.59375 -26 C 7.144531 -26.632812 8.117188 -27.648438 9.515625 -29.046875 C 10.921875 -30.441406 12.539062 -31.914062 14.375 -33.46875 C 16.207031 -35.03125 18.039062 -36.367188 19.875 -37.484375 C 21.71875 -38.609375 23.28125 -39.171875 24.5625 -39.171875 C 25.914062 -39.171875 26.789062 -38.53125 27.1875 -37.25 C 27.507812 -36.050781 27.453125 -34.59375 27.015625 -32.875 C 26.578125 -31.15625 25.9375 -29.359375 25.09375 -27.484375 C 24.257812 -25.609375 23.421875 -23.910156 22.578125 -22.390625 C 21.742188 -20.878906 21.085938 -19.6875 20.609375 -18.8125 C 20.367188 -18.332031 19.769531 -17.3125 18.8125 -15.75 C 17.851562 -14.195312 16.8125 -12.476562 15.6875 -10.59375 C 14.570312 -8.71875 13.59375 -7.019531 12.75 -5.5 C 11.914062 -3.988281 11.457031 -3.070312 11.375 -2.75 Z M 1.796875 41.328125 C 1.796875 41.960938 2.078125 42.28125 2.640625 42.28125 C 3.671875 42.28125 4.984375 41.617188 6.578125 40.296875 C 8.179688 38.984375 9.820312 37.40625 11.5 35.5625 C 13.175781 33.726562 14.671875 31.972656 15.984375 30.296875 C 17.304688 28.628906 18.207031 27.4375 18.6875 26.71875 C 19.40625 25.59375 20.34375 24.09375 21.5 22.21875 C 22.65625 20.34375 23.8125 18.347656 24.96875 16.234375 C 26.132812 14.117188 27.195312 12.0625 28.15625 10.0625 C 29.113281 8.0625 29.75 6.382812 30.0625 5.03125 C 29.425781 5.507812 28.546875 6.207031 27.421875 7.125 C 26.304688 8.039062 25.207031 8.976562 24.125 9.9375 C 23.050781 10.894531 22.15625 11.695312 21.4375 12.34375 C 20 13.539062 18.679688 14.835938 17.484375 16.234375 C 16.285156 17.628906 15.007812 19.046875 13.65625 20.484375 L 10.0625 24.921875 C 9.019531 26.273438 7.859375 27.890625 6.578125 29.765625 C 5.304688 31.640625 4.191406 33.570312 3.234375 35.5625 C 2.273438 37.5625 1.796875 39.484375 1.796875 41.328125 Z M 1.796875 41.328125 "/></g></g></g><g fill="#122620" fill-opacity="1"><g transform="translate(279.466595, 199.067502)"><g><path d="M 9.9375 0.484375 C 8.34375 0.484375 6.925781 -0.0351562 5.6875 -1.078125 C 4.445312 -2.117188 3.507812 -3.195312 2.875 -4.3125 C 1.4375 -7.03125 0.617188 -10.242188 0.421875 -13.953125 C 0.222656 -17.671875 0.441406 -21.046875 1.078125 -24.078125 C 1.234375 -24.953125 1.453125 -26.007812 1.734375 -27.25 C 2.015625 -28.488281 2.429688 -29.585938 2.984375 -30.546875 C 3.546875 -31.503906 4.226562 -31.984375 5.03125 -31.984375 C 6.863281 -31.984375 7.757812 -31.363281 7.71875 -30.125 C 7.6875 -28.882812 7.347656 -26.96875 6.703125 -24.375 C 6.066406 -21.78125 5.75 -18.445312 5.75 -14.375 C 5.75 -13.175781 5.90625 -11.738281 6.21875 -10.0625 C 6.539062 -8.382812 7.039062 -6.90625 7.71875 -5.625 C 8.40625 -4.351562 9.265625 -3.71875 10.296875 -3.71875 C 11.578125 -3.71875 13.035156 -4.273438 14.671875 -5.390625 C 16.304688 -6.503906 17.820312 -7.757812 19.21875 -9.15625 C 20.625 -10.5625 21.601562 -11.625 22.15625 -12.34375 C 22.320312 -12.5 22.765625 -13.035156 23.484375 -13.953125 C 24.203125 -14.867188 25.054688 -15.90625 26.046875 -17.0625 C 27.046875 -18.226562 28.023438 -19.25 28.984375 -20.125 C 29.941406 -21 30.703125 -21.4375 31.265625 -21.4375 C 31.816406 -21.4375 32.09375 -20.957031 32.09375 -20 C 32.09375 -19.445312 31.710938 -18.585938 30.953125 -17.421875 C 30.203125 -16.265625 29.304688 -15.046875 28.265625 -13.765625 C 27.234375 -12.492188 26.21875 -11.296875 25.21875 -10.171875 C 24.21875 -9.054688 23.476562 -8.257812 23 -7.78125 C 22.039062 -6.820312 20.898438 -5.679688 19.578125 -4.359375 C 18.265625 -3.046875 16.804688 -1.910156 15.203125 -0.953125 C 13.609375 0.00390625 11.851562 0.484375 9.9375 0.484375 Z M 6.109375 -47.078125 C 6.109375 -48.429688 6.46875 -49.609375 7.1875 -50.609375 C 7.90625 -51.609375 8.703125 -52.109375 9.578125 -52.109375 C 10.535156 -52.109375 11.335938 -51.507812 11.984375 -50.3125 C 13.097656 -48.070312 13.234375 -46.332031 12.390625 -45.09375 C 11.554688 -43.851562 10.539062 -43.234375 9.34375 -43.234375 C 8.539062 -43.234375 7.800781 -43.550781 7.125 -44.1875 C 6.445312 -44.832031 6.109375 -45.796875 6.109375 -47.078125 Z M 6.109375 -47.078125 "/></g></g></g><g fill="#122620" fill-opacity="1"><g transform="translate(306.77526, 199.067502)"><g><path d="M 5.984375 -2.75 C 7.179688 -3.070312 8.257812 -4.128906 9.21875 -5.921875 C 10.175781 -7.722656 10.851562 -9.78125 11.25 -12.09375 C 11.65625 -14.414062 11.757812 -16.550781 11.5625 -18.5 C 11.363281 -20.457031 10.742188 -21.796875 9.703125 -22.515625 C 9.460938 -21.640625 9.019531 -20.382812 8.375 -18.75 C 7.738281 -17.113281 7.117188 -15.316406 6.515625 -13.359375 C 5.921875 -11.398438 5.523438 -9.484375 5.328125 -7.609375 C 5.128906 -5.734375 5.347656 -4.113281 5.984375 -2.75 Z M 0 -6.828125 C 0 -7.867188 0.21875 -9.40625 0.65625 -11.4375 C 1.09375 -13.476562 1.710938 -15.675781 2.515625 -18.03125 C 3.316406 -20.382812 4.210938 -22.617188 5.203125 -24.734375 C 6.203125 -26.847656 7.28125 -28.582031 8.4375 -29.9375 C 9.601562 -31.300781 10.785156 -31.984375 11.984375 -31.984375 C 12.773438 -31.984375 13.332031 -31.625 13.65625 -30.90625 C 13.976562 -30.1875 14.054688 -29.585938 13.890625 -29.109375 C 13.734375 -28.710938 13.4375 -28.3125 13 -27.90625 C 12.5625 -27.507812 12.179688 -27.070312 11.859375 -26.59375 C 12.015625 -26.03125 12.410156 -25.410156 13.046875 -24.734375 C 13.691406 -24.054688 14.332031 -23.15625 14.96875 -22.03125 C 15.613281 -20.914062 16.035156 -19.398438 16.234375 -17.484375 C 16.429688 -15.566406 16.210938 -13.050781 15.578125 -9.9375 C 14.691406 -5.789062 13.289062 -2.675781 11.375 -0.59375 C 9.457031 1.476562 7.582031 2.515625 5.75 2.515625 C 4.226562 2.515625 2.890625 1.734375 1.734375 0.171875 C 0.578125 -1.378906 0 -3.710938 0 -6.828125 Z M 0 -6.828125 "/></g></g></g><path fill="#fffef9" d="M 268.890625 243.160156 C 267.71875 244.808594 266.5 246.421875 265.234375 248 C 263.96875 249.574219 262.65625 251.113281 261.300781 252.613281 C 259.941406 254.109375 258.542969 255.566406 257.097656 256.980469 C 255.652344 258.398438 254.167969 259.769531 252.644531 261.09375 C 251.117188 262.421875 249.554688 263.703125 247.953125 264.9375 C 246.351562 266.171875 244.714844 267.355469 243.042969 268.492188 C 241.371094 269.628906 239.664062 270.714844 237.929688 271.75 C 236.191406 272.785156 234.425781 273.769531 232.628906 274.699219 C 230.835938 275.628906 229.011719 276.503906 227.164062 277.324219 C 225.320312 278.148438 223.449219 278.914062 221.554688 279.625 C 219.664062 280.335938 217.75 280.988281 215.816406 281.585938 C 213.886719 282.183594 211.9375 282.722656 209.972656 283.203125 C 208.011719 283.683594 206.035156 284.105469 204.046875 284.46875 C 202.054688 284.832031 200.058594 285.136719 198.050781 285.382812 C 196.042969 285.628906 194.03125 285.8125 192.011719 285.9375 C 189.996094 286.0625 187.976562 286.128906 185.953125 286.132812 C 183.929688 286.136719 181.910156 286.082031 179.890625 285.964844 C 177.875 285.851562 175.859375 285.675781 173.851562 285.441406 C 171.84375 285.207031 169.84375 284.910156 167.855469 284.558594 C 165.863281 284.203125 163.882812 283.792969 161.917969 283.320312 C 159.953125 282.847656 158 282.320312 156.066406 281.730469 C 154.132812 281.144531 152.214844 280.5 150.320312 279.796875 C 148.425781 279.097656 146.550781 278.339844 144.699219 277.527344 C 142.847656 276.714844 141.023438 275.847656 139.222656 274.925781 C 137.421875 274.003906 135.652344 273.027344 133.910156 272.003906 C 132.167969 270.976562 130.457031 269.898438 128.78125 268.769531 C 127.101562 267.640625 125.460938 266.464844 123.851562 265.238281 C 122.246094 264.011719 120.675781 262.738281 119.140625 261.417969 C 117.609375 260.101562 116.117188 258.734375 114.667969 257.328125 C 113.214844 255.917969 111.808594 254.46875 110.445312 252.976562 C 109.078125 251.484375 107.761719 249.953125 106.488281 248.382812 C 105.214844 246.8125 103.988281 245.207031 102.808594 243.5625 L 121.289062 230.316406 C 122.203125 231.59375 123.15625 232.839844 124.144531 234.0625 C 125.136719 235.28125 126.160156 236.472656 127.222656 237.632812 C 128.28125 238.789062 129.375 239.917969 130.503906 241.011719 C 131.628906 242.105469 132.789062 243.164062 133.980469 244.191406 C 135.171875 245.214844 136.390625 246.207031 137.640625 247.15625 C 138.890625 248.109375 140.167969 249.027344 141.46875 249.902344 C 142.773438 250.78125 144.101562 251.617188 145.457031 252.414062 C 146.808594 253.210938 148.183594 253.96875 149.585938 254.6875 C 150.984375 255.402344 152.402344 256.074219 153.839844 256.707031 C 155.277344 257.339844 156.734375 257.925781 158.207031 258.472656 C 159.683594 259.015625 161.171875 259.519531 162.675781 259.976562 C 164.175781 260.429688 165.691406 260.84375 167.222656 261.210938 C 168.75 261.574219 170.285156 261.898438 171.832031 262.171875 C 173.378906 262.445312 174.933594 262.675781 176.496094 262.859375 C 178.054688 263.039062 179.621094 263.175781 181.1875 263.265625 C 182.757812 263.355469 184.328125 263.398438 185.898438 263.394531 C 187.46875 263.390625 189.039062 263.339844 190.605469 263.242188 C 192.175781 263.144531 193.738281 263.003906 195.300781 262.8125 C 196.859375 262.621094 198.410156 262.386719 199.957031 262.101562 C 201.503906 261.820312 203.039062 261.492188 204.566406 261.117188 C 206.089844 260.746094 207.605469 260.324219 209.105469 259.863281 C 210.605469 259.398438 212.09375 258.890625 213.5625 258.339844 C 215.035156 257.785156 216.488281 257.191406 217.921875 256.550781 C 219.359375 255.914062 220.773438 255.230469 222.167969 254.507812 C 223.566406 253.785156 224.9375 253.023438 226.285156 252.21875 C 227.636719 251.414062 228.960938 250.570312 230.261719 249.6875 C 231.558594 248.804688 232.832031 247.882812 234.078125 246.925781 C 235.320312 245.964844 236.535156 244.96875 237.722656 243.9375 C 238.90625 242.90625 240.0625 241.84375 241.183594 240.742188 C 242.304688 239.644531 243.394531 238.511719 244.449219 237.347656 C 245.503906 236.183594 246.523438 234.988281 247.507812 233.761719 C 248.492188 232.535156 249.4375 231.285156 250.347656 230.003906 Z M 268.890625 243.160156 " fill-opacity="1" fill-rule="nonzero"/><g fill="#122620" fill-opacity="1"><g transform="translate(110.213583, 243.606386)"><g><path d="M 13.0625 2.6875 L 12.078125 1.578125 C 12.378906 1.171875 12.566406 0.769531 12.640625 0.375 C 12.710938 -0.0078125 12.703125 -0.367188 12.609375 -0.703125 C 12.523438 -1.046875 12.398438 -1.359375 12.234375 -1.640625 C 12.066406 -1.921875 11.894531 -2.160156 11.71875 -2.359375 C 11.269531 -2.867188 10.726562 -3.222656 10.09375 -3.421875 C 9.46875 -3.628906 8.796875 -3.632812 8.078125 -3.4375 C 7.359375 -3.238281 6.625 -2.804688 5.875 -2.140625 C 5.207031 -1.546875 4.679688 -0.925781 4.296875 -0.28125 C 3.921875 0.363281 3.753906 1.03125 3.796875 1.71875 C 3.847656 2.414062 4.191406 3.117188 4.828125 3.828125 C 4.992188 4.015625 5.207031 4.195312 5.46875 4.375 C 5.738281 4.5625 6.0625 4.695312 6.4375 4.78125 C 6.820312 4.875 7.253906 4.878906 7.734375 4.796875 C 8.210938 4.722656 8.738281 4.515625 9.3125 4.171875 L 10.296875 5.28125 C 9.578125 5.75 8.90625 6.050781 8.28125 6.1875 C 7.65625 6.320312 7.082031 6.34375 6.5625 6.25 C 6.050781 6.15625 5.597656 5.992188 5.203125 5.765625 C 4.804688 5.546875 4.476562 5.320312 4.21875 5.09375 C 3.957031 4.863281 3.769531 4.6875 3.65625 4.5625 C 3.226562 4.070312 2.890625 3.523438 2.640625 2.921875 C 2.398438 2.328125 2.300781 1.6875 2.34375 1 C 2.382812 0.3125 2.59375 -0.390625 2.96875 -1.109375 C 3.34375 -1.835938 3.945312 -2.566406 4.78125 -3.296875 C 5.644531 -4.078125 6.550781 -4.601562 7.5 -4.875 C 8.445312 -5.144531 9.367188 -5.15625 10.265625 -4.90625 C 11.171875 -4.65625 11.992188 -4.113281 12.734375 -3.28125 C 13.378906 -2.550781 13.789062 -1.816406 13.96875 -1.078125 C 14.15625 -0.347656 14.15625 0.335938 13.96875 0.984375 C 13.789062 1.640625 13.488281 2.207031 13.0625 2.6875 Z M 13.0625 2.6875 "/></g></g></g><g fill="#122620" fill-opacity="1"><g transform="translate(128.47671, 261.304814)"><g><path d="M 8.125 1.375 L 4.328125 -1.125 L 1.515625 1 L 0.1875 0.125 L 10.03125 -7.03125 L 11.5 -6.078125 L 8.640625 5.703125 L 7.25 4.78125 Z M 5.46875 -2 L 8.421875 -0.046875 L 9.796875 -5.15625 L 9.765625 -5.171875 Z M 5.46875 -2 "/></g></g></g><g fill="#122620" fill-opacity="1"><g transform="translate(149.840155, 273.230016)"><g><path d="M 6.328125 -9.875 L 3 -0.390625 L 8.4375 1.53125 L 7.984375 2.8125 L 1.09375 0.390625 L 4.875 -10.375 Z M 6.328125 -9.875 "/></g></g></g><g fill="#122620" fill-opacity="1"><g transform="translate(171.50399, 279.070538)"><g><path d="M 4.171875 -10.96875 L 2.6875 0.34375 L 1.140625 0.15625 L 2.625 -11.15625 Z M 4.171875 -10.96875 "/></g></g></g><g fill="#122620" fill-opacity="1"><g transform="translate(189.092701, 280.219465)"><g><path d="M 9.421875 -2.1875 L 9.546875 -0.828125 L 1.15625 -0.09375 L 0.15625 -11.453125 L 8.4375 -12.1875 L 8.5625 -10.828125 L 1.8125 -10.234375 L 2.109375 -6.890625 L 8.328125 -7.4375 L 8.4375 -6.09375 L 2.21875 -5.546875 L 2.5625 -1.59375 Z M 9.421875 -2.1875 "/></g></g></g><g fill="#122620" fill-opacity="1"><g transform="translate(213.135562, 276.369295)"><g><path d="M 7.453125 -5.03125 L 4.34375 -13.6875 L 5.734375 -14.1875 L 9.59375 -3.453125 L 7.984375 -2.875 L -0.59375 -9.5625 L -0.625 -9.5625 L 2.5 -0.90625 L 1.09375 -0.390625 L -2.765625 -11.125 L -1.046875 -11.75 L 7.421875 -5.015625 Z M 7.453125 -5.03125 "/></g></g></g><g fill="#122620" fill-opacity="1"><g transform="translate(236.239422, 266.050565)"><g><path d="M -1.03125 -11.453125 L 4.640625 -3.171875 L 3.359375 -2.296875 L -2.3125 -10.578125 L -5.484375 -8.40625 L -6.25 -9.53125 L 1.390625 -14.765625 L 2.15625 -13.640625 Z M -1.03125 -11.453125 "/></g></g></g><g fill="#122620" fill-opacity="1"><g transform="translate(254.712456, 251.355029)"><g><path d="M 5.3125 -8.078125 L 6.328125 -7.1875 L 0.765625 -0.875 L -7.796875 -8.40625 L -2.3125 -14.640625 L -1.28125 -13.734375 L -5.75 -8.65625 L -3.234375 -6.453125 L 0.890625 -11.140625 L 1.90625 -10.234375 L -2.21875 -5.546875 L 0.765625 -2.921875 Z M 5.3125 -8.078125 "/></g></g></g></svg>